<svg xmlns="http://www.w3.org/2000/svg" xmlns:xlink="http://www.w3.org/1999/xlink" xml:space="preserve" width="100px" height="69px" style="shape-rendering:geometricPrecision; text-rendering:geometricPrecision; image-rendering:optimizeQuality; fill-rule:evenodd; clip-rule:evenodd" viewBox="0 0 6.59836 4.53608">
 <defs>
  <style type="text/css">
   
    .fil0 {fill:#1F1A17}
   
  </style>
 </defs>
 <g id="Layer_x0020_1">
  <metadata id="CorelCorpID_0Corel-Layer"/>
  <path class="fil0" d="M4.53689 1.66451c0.15975,0 0.289303,0.129552 0.289303,0.289303 0,0.15975 -0.129553,0.289303 -0.289303,0.289303 -0.15975,0 -0.289302,-0.129552 -0.289302,-0.289303 0,-0.15975 0.129552,-0.289303 0.289302,-0.289303zm2.06146 2.87157l-0.681481 0 0 -3.59498 -2.12557 0 0 1.3053 -0.320126 0.00282731 -0.0307545 0.000271531c-0.0017821,-3.38897e-005 -0.00356421,-6.77795e-005 -0.00534631,-0.000101669 -0.020831,0.00454288 -0.0353842,0.0168201 -0.0527419,0.030054 -0.00496898,0.00378821 -0.00979702,0.00799591 -0.0144461,0.0126198 -0.00430234,0.00427796 -0.00860758,0.00919899 -0.0128905,0.0147718l-0.000121094 0 -0.000215324 0.000281037 -0.311999 0.408522 -1.11588e-005 1.69449e-005 -8.26579e-007 -8.26579e-007c-0.0246535,0.0322911 -0.033867,0.0716875 -0.0288492,0.109148 0.00503469,0.0375928 0.024306,0.0732597 0.0565958,0.0979268l1.44651e-005 -1.90113e-005 2.89303e-005 2.19043e-005 -1.44651e-005 1.90113e-005c0.0322915,0.0246539 0.0716883,0.0338666 0.109149,0.0288488 0.0345555,-0.00462884 0.0674827,-0.0212856 0.0917362,-0.0490244l-0.000756733 0.000488921c0.00141262,-0.00168705 0.00279508,-0.00341005 0.00414323,-0.0051748l-1.65316e-006 -1.23987e-006 1.15721e-005 -1.15721e-005 0.268083 -0.351013 0.000604642 -5.37276e-006 0.00219994 -0.00288063 0.245708 -0.00216894 0 0.645391 -0.0982633 0.569172 -0.616572 0.00044222c-0.0014833,8.26579e-007 -0.00279218,1.23987e-005 -0.00392212,3.34764e-005 -0.0533069,0.00100429 -0.101595,0.0211769 -0.136781,0.0531697 -0.0359925,0.0327251 -0.0584982,0.0778802 -0.05925,0.127947 -1.65316e-005,0.00113613 -2.06645e-005,0.00233261 -1.19854e-005,0.00358735 0.000523224,0.0725009 0.0467707,0.135275 0.113336,0.165366 0.0127409,0.0057596 0.0263927,0.0103467 0.0407739,0.0135943 0.0141027,0.00318398 0.028874,0.00499502 0.0441298,0.005262 0.001163,2.02512e-005 0.00248056,2.97568e-005 0.00394361,2.89303e-005l0.712617 -0.000511239 0 0.410779 -3.06351 0c0.295446,-0.386576 0.453123,-0.907536 0.71619,-1.05444 -0.487107,-0.172121 -0.962201,0.667295 -1.44398,0.807388l0 -0.22952c0.00327201,-0.00580465 0.00664611,-0.0118064 0.0100652,-0.0178963 0.300291,-0.148625 0.691588,-0.412094 0.885803,-0.647444 0.238951,-0.289563 0.625089,-0.221564 0.577018,-0.564836 -0.313891,0.309541 -0.52775,0.196317 -0.822945,0.269417 0.0539814,-0.050861 0.108028,-0.0914849 0.161027,-0.117501 0.371755,-0.182487 0.56665,-0.556219 0.949564,-0.573987 -1.01623,-0.233103 -1.47788,0.968892 -1.76053,0.930736l0 -0.32736c0.010233,-0.0163671 0.020314,-0.032909 0.0302573,-0.0495922 0.680766,-0.340019 1.10996,-1.26112 1.60302,-1.38208 -0.303245,-0.0665251 -0.750939,0.246595 -1.20431,0.506563 0.0910939,-0.237107 0.162906,-0.429049 0.226919,-0.50622 -0.169578,0.12386 -0.369496,0.411998 -0.583651,0.692543 -0.0241787,0.0109319 -0.0482664,0.0213757 -0.0722434,0.0312633l0 -0.611442c0.022435,-0.00786862 0.0494368,-0.0171189 0.0820479,-0.0279979 0.0411756,-0.0298395 0.851868,-0.0993093 1.02201,-0.739978 -0.277877,0.331541 -0.373975,0.307764 -0.529121,0.296283 0.155848,-0.086556 0.267104,-0.343331 0.278444,-0.633575 -0.179456,0.352419 -0.301283,0.525686 -0.853381,0.554797l0 -1.1412 6.59836 0 0 4.53608zm-2.52393 -1.17874l-0.105091 0.574528 -0.000298395 -3.09967e-005 -0.0049789 0.0283942c-0.000180607,0.00103116 -0.000324432,0.00181434 -0.000431474,0.00235575 -0.00157587,0.00796491 -0.00397915,0.0155632 -0.00711891,0.0227181 -0.00319679,0.00728381 -0.00720942,0.0142837 -0.0119428,0.0209104 -0.024568,0.0343948 -0.0677361,0.0572712 -0.117001,0.0573063l-0.0362587 2.60372e-005 -0.712617 0.000511239c-0.00084683,4.13289e-007 -0.00183748,-9.09237e-006 -0.00297486,-2.89303e-005 -0.0107459,-0.000188047 -0.0213075,-0.001499 -0.0315377,-0.00380887 -0.00995159,-0.00224705 -0.0196362,-0.00552898 -0.0289075,-0.00972015 -0.0452449,-0.0204525 -0.076671,-0.0619409 -0.0770119,-0.109184 -5.78605e-006,-0.000817073 -1.65316e-006,-0.00169201 1.19854e-005,-0.0026186 0.000480242,-0.0319754 0.0153525,-0.0612673 0.0391509,-0.082905 0.0246035,-0.0223701 0.0585209,-0.036479 0.096098,-0.0371869 0.00115556,-2.1491e-005 0.00214125,-3.30631e-005 0.00295337,-3.34764e-005l0.642655 -0.000460818 0.0260839 -1.90113e-005 0.0044284 -0.02565 0.041667 -0.241348 0 0.00942506 0.102342 -0.569646 0.107182 -0.448046 0.0134493 -0.0618744 0.0835398 -0.000737308 -0.00117787 -0.171897 0.0469451 -0.030783 0.0145362 -0.00882207c0.0510189,-0.0257153 0.110959,-0.0343117 0.170539,-0.020059l0.185492 0.0443741c0.0823004,0.0196883 0.145492,0.0785576 0.174564,0.152093l0.404637 0.344072 0.487085 0.0280458c0.0641359,0.00369357 0.113394,0.0560334 0.109465,0.116314l0 0c-0.00392956,0.0602799 -0.0596162,0.106578 -0.123751,0.10289l-0.513076 -0.0295436c-0.0366662,-0.00211067 -0.0684634,-0.0201293 -0.0882468,-0.0464368l-0.293233 -0.249344 -0.12029 0.502839c-0.00138907,0.0058063 -0.00298684,0.0115105 -0.00475696,0.0171213l0.00475696 -0.00161348c0.0675947,0.2017 0.130513,0.387704 0.193431,0.573705 0.0699691,0.20685 0.139941,0.413709 0.203271,0.602842l2.47974e-006 -8.26579e-007 0 8.26579e-006c0.00187923,0.00561495 0.00286699,0.0113597 0.003029,0.0171317 0.000168622,0.00600592 -0.000541822,0.0121668 -0.00205942,0.0183645 -0.00866461,0.0353958 -0.0424915,0.0694082 -0.0899834,0.085517l1.23987e-005 3.67828e-005 -0.000644731 0.000216977c-0.0332508,0.0111336 -0.0665288,0.0110828 -0.0934046,0.00200983 -0.0238972,-0.00806699 -0.0422014,-0.0233744 -0.0491959,-0.0439963l-3.67828e-005 1.23987e-005 -7.48054e-005 -0.000222763c-0.00128988,-0.0038531 -0.00371836,-0.0111212 -0.00706725,-0.0211488 -0.0199875,-0.059841 -0.0715887,-0.214327 -0.10827,-0.322478 -0.0832522,-0.245469 -0.167042,-0.492354 -0.249918,-0.739146 -0.0325846,0.00572571 -0.0667863,0.00506114 -0.10087,-0.00309264l-0.1751 -0.0418881zm-0.963121 -0.47639c-0.040883,-0.0406478 -0.0327474,-0.0999689 0.00313563,-0.146954l0.311999 -0.408522 0.000271531 -0.000350056c0.0129012,-0.00732349 0.0274234,-0.0111427 0.0420257,-0.0112518l0.0308756 -0.000231442 0 -4.83549e-005 0.597028 -0.00527275 0.00117787 0.171897 -0.570703 0.005038 -0.0151925 0.000133906 -0.00914485 0.0119742 -0.277228 0.362987 1.65316e-006 1.23987e-006 -1.15721e-005 1.15721e-005c-0.0143316,0.01876 -0.0350023,0.0299498 -0.0567595,0.0328644 -0.0146606,0.00196395 -0.0434313,-0.00660106 -0.0574749,-0.0122768zm2.1322 -2.44285l-0.778836 0 0 0.324515 0.778836 0 0 -0.324515z"/>
 </g>
</svg>