<svg xmlns="http://www.w3.org/2000/svg" xmlns:xlink="http://www.w3.org/1999/xlink" version="1.1" id="Layer_1" x="0px" y="0px" width="100px" height="100px" viewBox="0 0 100 100" enable-background="new 0 0 100 100" xml:space="preserve">
<path d="M50,11.026c-21.525,0-38.974,17.449-38.974,38.974c0,12.283,5.688,23.232,14.567,30.376l-14.567,8.598H50  c21.525,0,38.974-17.449,38.974-38.974S71.524,11.026,50,11.026z M49.999,85.507H23.961l8.242-4.786  C21.617,74.574,14.493,63.123,14.493,50c0-19.61,15.896-35.506,35.506-35.506c19.61,0,35.507,15.896,35.507,35.506  C85.506,69.61,69.609,85.507,49.999,85.507z"/>
<g>
	<path d="M63.321,40.673c0-7.357-5.965-13.321-13.323-13.321c-7.357,0-13.321,5.964-13.321,13.321l0,0v0   c0,1.667,1.352,3.018,3.019,3.018s3.019-1.351,3.019-3.018v0l0,0c0-4.023,3.261-7.284,7.284-7.284c4.024,0,7.284,3.261,7.284,7.284   s-3.26,7.284-7.284,7.284v0.001c-1.667,0-3.018,1.351-3.018,3.019v9.161c0,1.668,1.352,3.02,3.019,3.02   c1.668,0,3.018-1.352,3.018-3.02v-6.5C58.919,52.27,63.321,46.991,63.321,40.673z"/>
	<circle cx="50" cy="69.524" r="3.124"/>
</g>
</svg>