<svg xmlns="http://www.w3.org/2000/svg" xmlns:xlink="http://www.w3.org/1999/xlink" version="1.1" id="Your_Icon" x="0px" y="0px" width="100px" height="100px" viewBox="0 0 100 100" enable-background="new 0 0 100 100" xml:space="preserve">
<g>
	<path d="M95.47,54.499c0-1.454-3.25-2.886-10.031-3.951c-0.498,0.563-1.084,1.153-1.771,1.771c3.912,0.609,5.336,1.291,5.349,2.212   c0.024,1.765-6.678,2.621-15.79,2.876c-2.059,0.058-4.239,0.085-6.493,0.085c-1.61,0-3.178-0.019-4.686-0.056   C52.093,57.189,44.71,56.15,44.71,54.53c0-0.862,1.355-1.496,4.842-2.094c-0.688-0.634-1.215-1.247-1.603-1.761   c-6.089,1.071-8.957,2.452-8.957,3.854c0,0.011,0.047,0.021,0.047,0.03s-0.047,0.021-0.047,0.03c0,1.108,1.203,2.123,5.348,2.907   c0.332,0.172,0.692,0.357,1.072,0.554c0.381-0.057,0.771-0.085,1.166-0.085c0.925,0,1.695,0.155,2.155,0.248   c0.072,0.015,0.138,0.027,0.193,0.038c0.564,0.105,1.249,0.336,2.115,0.627c1.22,0.411,2.738,0.922,4.611,1.323   c1.166,0.248,2.698,0.509,4.32,0.785c0.666,0.113,1.354,0.23,2.021,0.348c2.077,0.365,3.252,0.74,4.056,1.293   c0.229,0.157,0.427,0.33,0.595,0.518l0.611-0.084c2.44-0.336,10.457-1.435,11.166-1.451c0.066-0.001,0.134-0.002,0.201-0.002   c1.304,0,3.031,0.286,4.009,1.063c3.188-1.02,5.662-4.035,7.146-5.275c0.792-0.152,1.591-0.314,2.396-0.485   c2.682-0.678,3.295-1.503,3.295-2.353c0-0.011-0.004-0.021-0.005-0.031C95.465,54.519,95.47,54.509,95.47,54.499z"/>
	<path d="M81.659,64.055c-0.519-0.635-2.197-0.994-3.596-0.962c-0.694,0.016-11.027,1.439-11.027,1.439   c0.173,0.774,0.438,2.183-1.456,3.398c-1.277,0.725-3.09,0.791-5.39,0.513c-2.296-0.278-4.746-0.84-6.639-1.241   c-0.614-0.13-2.318-0.503-2.318-0.503s1.29-0.345,2.95-0.219c2.072,0.158,3.693,0.34,4.624,0.482   c1.018,0.155,2.474,0.417,3.087,0.501c2.8,0.381,3.695-1.063,3.797-1.665c0.288-1.696-0.774-2.381-4.294-3   c-2.264-0.397-4.699-0.782-6.385-1.142c-3.247-0.695-5.501-1.721-6.694-1.943c-0.822-0.154-2.927-0.718-5.186,0.49   c-0.75,0.171-2.364,0.001-4.411-0.365l-2.22,0.315c-0.193,0.045-1.636,0.418-3.001,1.653c-1.744,1.578-2.629,3.855-2.642,6.781   c0.967,0.22,1.862,0.417,2.688,0.592c1.948,0.591,4.151,0.928,6.276,1.136c1.556,0.21,2.464,0.247,2.99,0.226   c1.828,0.104,3.448,0.148,4.592,0.232c0.652,0.048,6.965,0.706,12.707,1.901c1.161,0.191,2.243-0.23,2.243-0.23   c9.442-3.777,17.281-5.567,17.281-5.567c1.853-0.374,2.471-0.985,2.52-1.498C82.241,64.446,81.663,64.062,81.659,64.055z"/>
	<path d="M31.012,70.232c0,0,0.586,6.42,0.507,9.04l5.665,1.845l-0.761-9.795L31.012,70.232z"/>
	<path d="M35.703,58.386l2.319-0.328c0,0,0.677-0.902-0.846-1.468c-1.522-0.566-14.365-3.322-14.365-3.322s-5.347-1.096-9.214,1.71   c-11.415,8.279-5.962,21.37-5.962,21.37l21.484,7.023c0,0,0.834-4.041,0-13.779C28.286,59.853,35.703,58.386,35.703,58.386z    M10.396,61.474l6.64,1.65c0,0-0.217,0.829-0.463,1.825l-6.769-1.803C9.805,63.146,10.034,61.894,10.396,61.474z M9.277,64.399   l6.884,1.778c0,0.466,0.074,0.715-0.018,1.692L9.01,66.087C9.01,66.087,8.921,65.23,9.277,64.399z M26.692,79.096L9.095,74.127   c-0.907-3.192-0.382-6.408-0.382-6.408l17.984,5.026C26.81,75.29,26.985,76.911,26.692,79.096z M26.417,70.668l-8.791-2.32   c0,0-0.018-6.016,2.508-8.231c0,0,7.256,1.612,7.557,1.708C26.127,63.17,26.551,67.566,26.417,70.668z M28.147,60.073l-13.75-3.074   c0.084-0.292,1.132-1.03,1.564-1.126c0.073-0.016,14.019,3.148,14.019,3.148c-0.504,0.359-1.24,1.221-1.24,1.221L28.147,60.073z"/>
	<path d="M52.194,52.673c0.938,0.95,1.96,1.797,3.057,2.535c1.662,0.132,3.501,0.204,5.397,0.233   c-0.42-0.146-0.837-0.306-1.248-0.483c-2.126-0.91-4.021-2.204-5.631-3.842c-1.672-1.696-2.967-3.682-3.855-5.916   c-0.888-2.229-1.312-4.563-1.263-6.944c0.041-1.959,0.406-3.878,1.073-5.715l1.426,0.336l2.435-0.313l0.344-1.687l-0.104-1.747   l2.062-2.013c0,0,0.476-1.502,0.457-2.447c-0.006-0.336,0.359-0.695,0.886-1.26c0.838-0.503,1.71-0.937,2.629-1.301   c0.546-0.218,1.095-0.404,1.649-0.567c0.102,0.036,0.186,0.063,0.242,0.079c1.355,0.419,3.218,2.24,3.218,2.24   s0.388,0.686,1.959-1.371c1.559-2.058,3.512-0.746,3.512-0.746l1.111,0.689c0,0-2.327,0.446-2.425,1.084   c-0.109,0.641,1.072,0.768,1.427,0.744c0.349-0.017,1.938,0.6,2.722,0.768c0.779,0.162,2.101-0.782,1.955-1.436   c-0.025-0.138,0.007-0.266,0.073-0.378c1.389,0.802,2.657,1.779,3.794,2.925c1.671,1.695,2.967,3.685,3.854,5.913   c0.889,2.234,1.312,4.567,1.263,6.948c0,0-0.206-1.321-0.515-2.105c-0.195-0.645-1.083-1.47-1.804-1.579   c-0.506-0.074-2.113-0.741-2.749-1.44c-0.637-0.701-1.025-0.422-1.16-0.611c-0.13-0.188-0.35-0.229-0.835-0.402   c-0.487-0.174-0.712,0.443-0.712,0.443s0.177,1.357,1.169,1.202c0.593-0.092-0.483,0.135-0.874,0.348   c-0.391,0.216-0.188,1.029,0.491,1.235c0.303,0.094,0.878-0.17,1.121-0.123c0.296,0.048,0.228,0.405,0.323,0.564   c0.053,0.101-0.218-0.025-0.24,0.135c-0.055,0.329,0.427,0.753-0.248,0.871c-0.274,0.049-0.645-0.737-1.061-0.689   c-0.41,0.045-0.689-0.064-0.689-0.064l-0.707-1.664l0.591-0.874c0,0-0.463-0.458-0.885-0.121c-0.292,0.231-0.778,0.141-0.778,0.141   s-0.504-0.825-0.769-0.72c-0.138,0.055-0.299-0.287-0.453-0.456c-0.133-0.135-0.452-0.148-0.537-0.3   c-0.051-0.095-0.342-0.663-0.417-0.79c-0.188-0.344-0.218-0.13-0.367-0.071c-0.204,0.082,0.009,0.771,0.009,0.771   s-0.009,0.482-0.38,0.448c-0.367-0.033-0.36,0.284-0.483-0.025c-0.054-0.135-0.157-0.451-0.283-0.76   c-0.16-0.402-0.192-0.836-0.358-0.78c-0.653,0.212-1.522,0.59-1.522,0.59s-0.049,0.64,0.14,0.903   c0.26,0.363,0.167,1.063,1.01,1.045c0.07,0.001,0.212-0.014,0.284,0.009c0.324,0.091,0.882,0.077,1.166,0.328   c0.172,0.159,0.198,0.474,0.237,0.563c0.097,0.195,0.511,0.433,0.511,0.433s0.249,0.972-0.559,1.574   c-0.239,0.179-0.724,0.287-0.75,0.477c-0.015,0.115,0.621,0.348,0.621,0.348l0.169,0.488l0.523-0.515l0.614-1.267l0.118,0.09   c0,0,0.265,0.713,0.13,0.824c-0.134,0.113-0.189,1.065-0.691,1.112c-0.828,0.07-0.828,0.665-0.828,0.665s0.099,0.497,0.572,0.545   c0.407,0.046,0.722-0.047,0.722-0.047l0.319,0.543c0,0,1.251-0.532,1.55,0.106c0.286,0.64,0.286,0.72,0.286,0.72   s0.08,1.597-0.223,1.896c-0.3,0.298-0.64,0.514-0.874,0.069c-0.232-0.441-0.416-1.166-0.416-1.166s-0.438-1.929-0.89-1.569   c-0.451,0.358-0.904,0.714-0.904,0.714s0.198,0.401,0.258,0.792c0.063,0.416,0.309,0.871,0.309,0.871l-0.859,0.441l-0.157-0.2   c-0.174-0.23-0.518-0.982-0.684-1.156c-0.158-0.177-0.663-2.566-0.763-2.591c-0.097-0.019-0.646-0.662-0.711-1.112   c-0.06-0.456,0.876-0.947,0.876-0.947s0.445-0.237,0.303-0.507c-0.132-0.276-1.091-2.163-1.091-2.163s-0.545-0.527-0.696-0.468   c0,0,0.056-0.229-0.174-0.435c-0.231-0.205-0.357-0.603-0.605-0.622c-0.248-0.022-0.785-0.256-1.23-0.315   c-0.44-0.064-0.731-0.633-1.434-0.535c-0.701,0.1-1.836,0.404-2.289,0.614c-0.456,0.21-1.565,0.651-1.639,1.221   c-0.064,0.562-0.465,1.435-0.604,1.758c-0.137,0.323,0.186,1.654,0.347,1.77c0.166,0.113,0.575,0.547,0.688,0.831   c0.112,0.281,0.333,0.909,0.248,1.154c-0.08,0.239-0.357,0.586-0.684,0.897c-0.322,0.308-0.906,0.719-1.09,0.939   c-0.179,0.218-0.406,0.906-0.919,0.902s-1.082-0.167-1.574,0.09c-0.492,0.256-1.056,0.864-1.24,1.074   c-0.187,0.206-0.608,1.24-0.854,1.308c-0.242,0.065-0.077,0.239-0.073,0.563c0.011,0.324,0.829,1.401,1.105,1.502   c0.275,0.098,0.996,0.108,1.466,0.312c0.467,0.201,1.318,0.695,1.849,0.903s1.009,0.432,1.508,0.263   c0.498-0.169,1.494-0.892,1.773-0.706c0.28,0.186,0.681,0.444,1.12,0.567c0.437,0.127,0.651,0.667,1.888,0.619   c1.235-0.044,1.59-0.035,1.616-0.132c0.018-0.1-0.478-0.59-0.669-0.635c-0.193-0.038-0.455-0.681-0.639-0.756   c-0.173-0.078-0.267-0.67-0.267-0.67s1.042-0.175,1.327-0.438c0.279-0.262,1.343-1.426,1.719-1.815   c0.31-0.321,0.749-0.524,1.072-0.563c-0.036,0.053-0.07,0.104-0.106,0.15c-0.126,0.156-0.502,0.891-1.014,1.337   c-1.114,0.96-1.84,1.825-1.84,1.825s0.23,0.684,1.534,1.456c0.887,0.525,1.245,1.312,1.601,1.331   c0.673,0.029,0.764-1.237,0.764-1.237l-0.402-0.913l0.956-1.221l0.156,0.185c0,0-0.618,1.138-0.476,1.495   c0.144,0.361,0.637,1.296,0.401,1.748c-0.241,0.453-0.487,1.625-1.044,2.025c-0.559,0.401-1.466,0.676-1.66,1.079   c-0.271,0.564-0.054,0.916-0.054,0.916l1.265,0.03l1.687,0.543l0.819,0.696c-0.012,0.004-0.022,0.009-0.035,0.015   c-0.049,0.019-0.098,0.036-0.146,0.055c2.291-0.105,4.142-0.221,5.18-0.29c0.861-0.612,1.674-1.294,2.432-2.043   c1.843-1.816,3.293-3.946,4.321-6.332c1.028-2.385,1.579-4.904,1.631-7.487c0.059-2.678-0.419-5.31-1.417-7.815   c-0.998-2.508-2.458-4.748-4.34-6.65c-1.812-1.841-3.943-3.293-6.33-4.321c-2.385-1.023-4.902-1.577-7.489-1.63   c-2.674-0.058-5.306,0.418-7.81,1.415c-2.508,0.998-4.747,2.461-6.653,4.34c-1.84,1.815-3.291,3.949-4.321,6.33   c-1.022,2.385-1.572,4.903-1.627,7.488c-0.061,2.676,0.415,5.307,1.413,7.814C48.848,48.528,50.311,50.768,52.194,52.673z    M76.87,45.195c-0.021,0.092-0.611,0.361-1.011,0.44c-0.407,0.082-0.529,0.428-0.521,0.546c0.006,0.118-0.776,0.507-0.951,0.557   c-0.181,0.053-0.525-0.365-0.592-0.492c-0.073-0.128-0.286-0.646-0.034-0.728c0.258-0.083,1.036-0.553,1.321-0.784   c0.284-0.232,0.778-0.387,0.928-0.268c0.146,0.117,0.77,0.247,0.77,0.247C76.918,44.723,76.892,45.106,76.87,45.195z"/>
	<path d="M75.326,30.51c-0.137,0.114-0.628,0.269-0.628,0.269s-0.048,0.297-0.084,0.392c-0.047,0.099,0.044,0.759,0.283,0.961   c0.234,0.203,0.665,0.191,0.761,0.371c0.093,0.184,0.029,0.071,0.151-0.021c0.122-0.088,0.716-0.064,0.716-0.064l0.234-0.688   c0,0,0.523-0.588,0.747-0.636c0.214-0.047,0.521-0.386,0.549-0.378c0.035,0.009-0.347-0.855-0.854-0.574l-0.753,0.3   c0,0-0.408-0.112-0.526-0.167C75.801,30.219,75.46,30.398,75.326,30.51z"/>
	<path d="M75.587,29.575c-0.09-0.073-0.256-0.001-0.416-0.001c-0.157,0.005-0.724,0.093-0.724,0.093l0.042,0.345   c0,0,0.263,0.468,0.388,0.479c0.1,0.008,0.523-0.308,0.686-0.43c0.034-0.026,0.058-0.048,0.058-0.048l0.292-0.213   C75.997,29.706,75.679,29.653,75.587,29.575z"/>
	<path d="M61.219,49.437c-0.373-0.271-0.882-0.362-1.113-0.27c-0.231,0.092-0.523,0.115-0.72,0.286   c-0.205,0.168-0.281,0.425-0.165,0.638s0.679,0.286,0.906,0.256c0.226-0.029,0.722-0.051,0.927,0.047   c0.206,0.101,0.637-0.015,0.828-0.119c0.194-0.106,1.016-0.226,0.508-0.828C62.39,49.446,61.599,49.7,61.219,49.437z"/>
</g>
</svg>